# This file uses centimeters as units for non-parametric coordinates.

v 0.372464 -1.335361 -0.961171
v 0.061940 -1.335361 -0.999403
v -0.245201 -1.335361 -0.939806
v -0.518892 -1.335361 -0.788215
v -0.732344 -1.335361 -0.559467
v -0.864662 -1.335361 -0.275955
v -0.902894 -1.335361 0.034569
v -0.843297 -1.335361 0.341710
v -0.691705 -1.335361 0.615401
v -0.462958 -1.335361 0.828853
v -0.179446 -1.335361 0.961171
v 0.131078 -1.335361 0.999403
v 0.438219 -1.335361 0.939806
v 0.711910 -1.335361 0.788214
v 0.925362 -1.335361 0.559467
v 1.057680 -1.335361 0.275955
v 1.095911 -1.335361 -0.034569
v 1.036315 -1.335361 -0.341710
v 0.884723 -1.335361 -0.615401
v 0.655976 -1.335361 -0.828853
v 0.372464 1.335361 -0.961171
v 0.061940 1.335361 -0.999403
v -0.245201 1.335361 -0.939806
v -0.518892 1.335361 -0.788215
v -0.732344 1.335361 -0.559467
v -0.864662 1.335361 -0.275955
v -0.902894 1.335361 0.034569
v -0.843297 1.335361 0.341710
v -0.691705 1.335361 0.615401
v -0.462958 1.335361 0.828853
v -0.179446 1.335361 0.961171
v 0.131078 1.335361 0.999403
v 0.438219 1.335361 0.939806
v 0.711910 1.335361 0.788214
v 0.925362 1.335361 0.559467
v 1.057680 1.335361 0.275955
v 1.095911 1.335361 -0.034569
v 1.036315 1.335361 -0.341710
v 0.884723 1.335361 -0.615401
v 0.655976 1.335361 -0.828853
v 0.096509 -1.335361 0.000000
v 0.096509 1.335361 0.000000
vt 0.199834 0.007309
vt 0.249041 0.007309
vt 0.249041 0.496902
vt 0.199834 0.496902
vt 0.288092 0.007309
vt 0.288092 0.496902
vt 0.287103 0.008674
vt 0.336306 0.008036
vt 0.342649 0.497588
vt 0.293446 0.498225
vt 0.390848 0.007330
vt 0.397191 0.496881
vt 0.445391 0.006623
vt 0.451734 0.496174
vt 0.494594 0.005985
vt 0.500937 0.495537
vt 0.508497 0.007309
vt 0.547548 0.007309
vt 0.547548 0.496902
vt 0.508497 0.496902
vt 0.596755 0.007309
vt 0.596755 0.496902
vt 0.651302 0.007309
vt 0.651302 0.496902
vt 0.705849 0.007309
vt 0.705849 0.496902
vt 0.755056 0.007309
vt 0.755056 0.496902
vt 0.794107 0.007309
vt 0.794107 0.496902
vt 0.796398 0.007296
vt 0.845668 0.007296
vt 0.845668 0.497517
vt 0.796398 0.497517
vt 0.900285 0.007296
vt 0.900285 0.497517
vt 0.954902 0.007296
vt 0.954902 0.497517
vt 1.004172 0.007296
vt 1.004172 0.497517
vt 0.002481 0.007309
vt 0.041533 0.007309
vt 0.041533 0.496902
vt 0.002481 0.496902
vt 0.090740 0.007309
vt 0.090740 0.496902
vt 0.145287 0.007309
vt 0.145287 0.496902
vt 0.741638 0.555667
vt 0.760637 0.592956
vt 0.633421 0.634292
vt 0.712045 0.526075
vt 0.674756 0.507075
vt 0.633421 0.500528
vt 0.592085 0.507075
vt 0.554796 0.526075
vt 0.525204 0.555667
vt 0.506204 0.592956
vt 0.499657 0.634292
vt 0.506204 0.675627
vt 0.525204 0.712916
vt 0.554796 0.742509
vt 0.592085 0.761508
vt 0.633421 0.768055
vt 0.674756 0.761508
vt 0.712045 0.742509
vt 0.741638 0.712916
vt 0.760637 0.675627
vt 0.767184 0.634292
vt 0.462491 0.838381
vt 0.429322 0.903478
vt 0.240404 0.766221
vt 0.377661 0.955139
vt 0.312564 0.988308
vt 0.240404 0.999737
vt 0.168244 0.988308
vt 0.103147 0.955139
vt 0.051486 0.903478
vt 0.018317 0.838381
vt 0.006888 0.766221
vt 0.018317 0.694061
vt 0.051486 0.628964
vt 0.103147 0.577303
vt 0.168244 0.544134
vt 0.240404 0.532705
vt 0.312564 0.544134
vt 0.377661 0.577303
vt 0.429322 0.628964
vt 0.462490 0.694061
vt 0.473920 0.766221
vn 0.275956 0.000000 -0.961170
vn -0.034569 0.000000 -0.999402
vn -0.034569 0.000000 -0.999402
vn 0.275956 0.000000 -0.961170
vn -0.034569 0.000000 -0.999402
vn -0.341710 0.000000 -0.939806
vn -0.341710 0.000000 -0.939806
vn -0.034569 0.000000 -0.999402
vn -0.341710 0.000000 -0.939806
vn -0.615401 0.000000 -0.788214
vn -0.615401 0.000000 -0.788214
vn -0.341710 0.000000 -0.939806
vn -0.615401 0.000000 -0.788214
vn -0.828853 0.000000 -0.559467
vn -0.828853 0.000000 -0.559467
vn -0.615401 0.000000 -0.788214
vn -0.828853 0.000000 -0.559467
vn -0.961171 0.000000 -0.275955
vn -0.961171 0.000000 -0.275955
vn -0.828853 0.000000 -0.559467
vn -0.961171 0.000000 -0.275955
vn -0.999402 0.000000 0.034569
vn -0.999402 0.000000 0.034569
vn -0.961171 0.000000 -0.275955
vn -0.999402 0.000000 0.034569
vn -0.939806 0.000000 0.341710
vn -0.939806 0.000000 0.341710
vn -0.999402 0.000000 0.034569
vn -0.939806 0.000000 0.341710
vn -0.788214 0.000000 0.615401
vn -0.788214 0.000000 0.615401
vn -0.939806 0.000000 0.341710
vn -0.788214 0.000000 0.615401
vn -0.559467 0.000000 0.828853
vn -0.559467 0.000000 0.828853
vn -0.788214 0.000000 0.615401
vn -0.559467 0.000000 0.828853
vn -0.275955 0.000000 0.961171
vn -0.275955 0.000000 0.961171
vn -0.559467 0.000000 0.828853
vn -0.275955 0.000000 0.961171
vn 0.034569 0.000000 0.999402
vn 0.034569 0.000000 0.999402
vn -0.275955 0.000000 0.961171
vn 0.034569 0.000000 0.999402
vn 0.341710 0.000000 0.939806
vn 0.341710 0.000000 0.939806
vn 0.034569 0.000000 0.999402
vn 0.341710 0.000000 0.939806
vn 0.615401 0.000000 0.788214
vn 0.615401 0.000000 0.788214
vn 0.341710 0.000000 0.939806
vn 0.615401 0.000000 0.788214
vn 0.828853 0.000000 0.559467
vn 0.828853 0.000000 0.559467
vn 0.615401 0.000000 0.788214
vn 0.828853 0.000000 0.559467
vn 0.961171 0.000000 0.275955
vn 0.961171 0.000000 0.275955
vn 0.828853 0.000000 0.559467
vn 0.961171 0.000000 0.275955
vn 0.999402 0.000000 -0.034569
vn 0.999402 0.000000 -0.034569
vn 0.961171 0.000000 0.275955
vn 0.999402 0.000000 -0.034569
vn 0.939806 0.000000 -0.341710
vn 0.939806 0.000000 -0.341710
vn 0.999402 0.000000 -0.034569
vn 0.939806 0.000000 -0.341710
vn 0.788214 0.000000 -0.615401
vn 0.788214 0.000000 -0.615401
vn 0.939806 0.000000 -0.341710
vn 0.788214 0.000000 -0.615401
vn 0.559468 0.000000 -0.828852
vn 0.559468 0.000000 -0.828852
vn 0.788214 0.000000 -0.615401
vn 0.559468 0.000000 -0.828852
vn 0.275956 0.000000 -0.961170
vn 0.275956 0.000000 -0.961170
vn 0.559468 0.000000 -0.828852
vn 0.000000 -1.000000 0.000000
vn 0.000000 -1.000000 0.000000
vn 0.000000 -1.000000 0.000000
vn 0.000000 -1.000000 0.000000
vn 0.000000 -1.000000 0.000000
vn 0.000000 -1.000000 0.000000
vn 0.000000 -1.000000 0.000000
vn 0.000000 -1.000000 0.000000
vn 0.000000 -1.000000 0.000000
vn 0.000000 -1.000000 0.000000
vn 0.000000 -1.000000 0.000000
vn 0.000000 -1.000000 0.000000
vn 0.000000 -1.000000 0.000000
vn 0.000000 -1.000000 0.000000
vn 0.000000 -1.000000 0.000000
vn 0.000000 -1.000000 0.000000
vn 0.000000 -1.000000 0.000000
vn 0.000000 -1.000000 0.000000
vn 0.000000 -1.000000 0.000000
vn 0.000000 -1.000000 0.000000
vn 0.000000 -1.000000 0.000000
vn 0.000000 -1.000000 0.000000
vn 0.000000 -1.000000 0.000000
vn 0.000000 -1.000000 0.000000
vn 0.000000 -1.000000 0.000000
vn 0.000000 -1.000000 0.000000
vn 0.000000 -1.000000 0.000000
vn 0.000000 -1.000000 0.000000
vn 0.000000 -1.000000 0.000000
vn 0.000000 -1.000000 0.000000
vn 0.000000 -1.000000 0.000000
vn 0.000000 -1.000000 0.000000
vn 0.000000 -1.000000 0.000000
vn 0.000000 -1.000000 0.000000
vn 0.000000 -1.000000 0.000000
vn 0.000000 -1.000000 0.000000
vn 0.000000 -1.000000 0.000000
vn 0.000000 -1.000000 0.000000
vn 0.000000 -1.000000 0.000000
vn 0.000000 -1.000000 0.000000
vn 0.000000 -1.000000 0.000000
vn 0.000000 -1.000000 0.000000
vn 0.000000 -1.000000 0.000000
vn 0.000000 -1.000000 0.000000
vn 0.000000 -1.000000 0.000000
vn 0.000000 -1.000000 0.000000
vn 0.000000 -1.000000 0.000000
vn 0.000000 -1.000000 0.000000
vn 0.000000 -1.000000 0.000000
vn 0.000000 -1.000000 0.000000
vn 0.000000 -1.000000 0.000000
vn 0.000000 -1.000000 0.000000
vn 0.000000 -1.000000 0.000000
vn 0.000000 -1.000000 0.000000
vn 0.000000 -1.000000 0.000000
vn 0.000000 -1.000000 0.000000
vn 0.000000 -1.000000 0.000000
vn 0.000000 -1.000000 0.000000
vn 0.000000 -1.000000 0.000000
vn 0.000000 -1.000000 0.000000
vn 0.000000 1.000000 0.000000
vn 0.000000 1.000000 0.000000
vn 0.000000 1.000000 0.000000
vn 0.000000 1.000000 0.000000
vn 0.000000 1.000000 0.000000
vn 0.000000 1.000000 0.000000
vn 0.000000 1.000000 0.000000
vn 0.000000 1.000000 0.000000
vn 0.000000 1.000000 0.000000
vn 0.000000 1.000000 0.000000
vn 0.000000 1.000000 0.000000
vn 0.000000 1.000000 0.000000
vn 0.000000 1.000000 0.000000
vn 0.000000 1.000000 0.000000
vn 0.000000 1.000000 0.000000
vn 0.000000 1.000000 0.000000
vn 0.000000 1.000000 0.000000
vn 0.000000 1.000000 0.000000
vn 0.000000 1.000000 0.000000
vn 0.000000 1.000000 0.000000
vn 0.000000 1.000000 0.000000
vn 0.000000 1.000000 0.000000
vn 0.000000 1.000000 0.000000
vn 0.000000 1.000000 0.000000
vn 0.000000 1.000000 0.000000
vn 0.000000 1.000000 0.000000
vn 0.000000 1.000000 0.000000
vn 0.000000 1.000000 0.000000
vn 0.000000 1.000000 0.000000
vn 0.000000 1.000000 0.000000
vn 0.000000 1.000000 0.000000
vn 0.000000 1.000000 0.000000
vn 0.000000 1.000000 0.000000
vn 0.000000 1.000000 0.000000
vn 0.000000 1.000000 0.000000
vn 0.000000 1.000000 0.000000
vn 0.000000 1.000000 0.000000
vn 0.000000 1.000000 0.000000
vn 0.000000 1.000000 0.000000
vn 0.000000 1.000000 0.000000
vn 0.000000 1.000000 0.000000
vn 0.000000 1.000000 0.000000
vn 0.000000 1.000000 0.000000
vn 0.000000 1.000000 0.000000
vn 0.000000 1.000000 0.000000
vn 0.000000 1.000000 0.000000
vn 0.000000 1.000000 0.000000
vn 0.000000 1.000000 0.000000
vn 0.000000 1.000000 0.000000
vn 0.000000 1.000000 0.000000
vn 0.000000 1.000000 0.000000
vn 0.000000 1.000000 0.000000
vn 0.000000 1.000000 0.000000
vn 0.000000 1.000000 0.000000
vn 0.000000 1.000000 0.000000
vn 0.000000 1.000000 0.000000
vn 0.000000 1.000000 0.000000
vn 0.000000 1.000000 0.000000
vn 0.000000 1.000000 0.000000
vn 0.000000 1.000000 0.000000
f 1/1/1 2/2/2 22/3/3 21/4/4
f 2/2/5 3/5/6 23/6/7 22/3/8
f 3/7/9 4/8/10 24/9/11 23/10/12
f 4/8/13 5/11/14 25/12/15 24/9/16
f 5/11/17 6/13/18 26/14/19 25/12/20
f 6/13/21 7/15/22 27/16/23 26/14/24
f 7/17/25 8/18/26 28/19/27 27/20/28
f 8/18/29 9/21/30 29/22/31 28/19/32
f 9/21/33 10/23/34 30/24/35 29/22/36
f 10/23/37 11/25/38 31/26/39 30/24/40
f 11/25/41 12/27/42 32/28/43 31/26/44
f 12/27/45 13/29/46 33/30/47 32/28/48
f 13/31/49 14/32/50 34/33/51 33/34/52
f 14/32/53 15/35/54 35/36/55 34/33/56
f 15/35/57 16/37/58 36/38/59 35/36/60
f 16/37/61 17/39/62 37/40/63 36/38/64
f 17/41/65 18/42/66 38/43/67 37/44/68
f 18/42/69 19/45/70 39/46/71 38/43/72
f 19/45/73 20/47/74 40/48/75 39/46/76
f 20/47/77 1/1/78 21/4/79 40/48/80
f 2/49/81 1/50/82 41/51/83
f 3/52/84 2/49/85 41/51/86
f 4/53/87 3/52/88 41/51/89
f 5/54/90 4/53/91 41/51/92
f 6/55/93 5/54/94 41/51/95
f 7/56/96 6/55/97 41/51/98
f 8/57/99 7/56/100 41/51/101
f 9/58/102 8/57/103 41/51/104
f 10/59/105 9/58/106 41/51/107
f 11/60/108 10/59/109 41/51/110
f 12/61/111 11/60/112 41/51/113
f 13/62/114 12/61/115 41/51/116
f 14/63/117 13/62/118 41/51/119
f 15/64/120 14/63/121 41/51/122
f 16/65/123 15/64/124 41/51/125
f 17/66/126 16/65/127 41/51/128
f 18/67/129 17/66/130 41/51/131
f 19/68/132 18/67/133 41/51/134
f 20/69/135 19/68/136 41/51/137
f 1/50/138 20/69/139 41/51/140
f 21/70/141 22/71/142 42/72/143
f 22/71/144 23/73/145 42/72/146
f 23/73/147 24/74/148 42/72/149
f 24/74/150 25/75/151 42/72/152
f 25/75/153 26/76/154 42/72/155
f 26/76/156 27/77/157 42/72/158
f 27/77/159 28/78/160 42/72/161
f 28/78/162 29/79/163 42/72/164
f 29/79/165 30/80/166 42/72/167
f 30/80/168 31/81/169 42/72/170
f 31/81/171 32/82/172 42/72/173
f 32/82/174 33/83/175 42/72/176
f 33/83/177 34/84/178 42/72/179
f 34/84/180 35/85/181 42/72/182
f 35/85/183 36/86/184 42/72/185
f 36/86/186 37/87/187 42/72/188
f 37/87/189 38/88/190 42/72/191
f 38/88/192 39/89/193 42/72/194
f 39/89/195 40/90/196 42/72/197
f 40/90/198 21/70/199 42/72/200
