# This file uses centimeters as units for non-parametric coordinates.

v -1.059376 0.013476 1.059376
v 1.059376 0.013476 1.059376
v -1.059376 2.085512 1.059376
v 1.059376 2.085512 1.059376
v -1.059376 2.085512 -1.059376
v 1.059376 2.085512 -1.059376
v -1.059376 0.013476 -1.059376
v 1.059376 0.013476 -1.059376
vt 0.625320 0.249005
vt 0.375000 0.498412
vt 0.625000 0.498412
vt 0.375000 0.748412
vt 0.625000 0.748412
vt 0.375000 0.998413
vt 0.625000 0.998413
vt 0.626598 0.500052
vt 0.876863 0.500052
vt 0.126620 0.499495
vt 0.126620 0.749495
vt 0.626598 0.750318
vt 0.876863 0.750318
vt 0.375426 0.249203
vt 0.376620 0.499495
vt 0.376620 0.749495
vt 0.625639 -0.000402
vt 0.375639 -0.000402
vn 0.000000 0.000000 1.000000
vn 0.000000 0.000000 1.000000
vn 0.000000 0.000000 1.000000
vn 0.000000 0.000000 1.000000
vn 0.000000 1.000000 0.000000
vn 0.000000 1.000000 0.000000
vn 0.000000 1.000000 0.000000
vn 0.000000 1.000000 0.000000
vn 0.000000 0.000000 -1.000000
vn 0.000000 0.000000 -1.000000
vn 0.000000 0.000000 -1.000000
vn 0.000000 0.000000 -1.000000
vn 0.000000 -1.000000 0.000000
vn 0.000000 -1.000000 0.000000
vn 0.000000 -1.000000 0.000000
vn 0.000000 -1.000000 0.000000
vn 1.000000 0.000000 0.000000
vn 1.000000 0.000000 0.000000
vn 1.000000 0.000000 0.000000
vn 1.000000 0.000000 0.000000
vn -1.000000 0.000000 0.000000
vn -1.000000 0.000000 0.000000
vn -1.000000 0.000000 0.000000
vn -1.000000 0.000000 0.000000
f 1/14/1 2/1/2 3/2/3
f 3/2/3 2/1/2 4/3/4
f 3/2/5 4/3/6 5/4/7
f 5/4/7 4/3/6 6/5/8
f 5/4/9 6/5/10 7/6/11
f 7/6/11 6/5/10 8/7/12
f 7/18/13 8/17/14 1/14/15
f 1/14/15 8/17/14 2/1/16
f 2/8/17 8/9/18 4/12/19
f 4/12/19 8/9/18 6/13/20
f 7/10/21 1/15/22 5/11/23
f 5/11/23 1/15/22 3/16/24
